<?xml version="1.0" encoding="utf-8"?>
<!-- Generator: Adobe Illustrator 16.0.0, SVG Export Plug-In . SVG Version: 6.00 Build 0)  -->
<!DOCTYPE svg PUBLIC "-//W3C//DTD SVG 1.1//EN" "http://www.w3.org/Graphics/SVG/1.1/DTD/svg11.dtd">
<svg version="1.1" id="Layer_1" xmlns="http://www.w3.org/2000/svg" xmlns:xlink="http://www.w3.org/1999/xlink" x="0px" y="0px"
	 width="84px" height="72px" viewBox="0 0 84 72" enable-background="new 0 0 84 72" xml:space="preserve">
<g>
	<path fill="#1FBEFF" d="M13.836,47.29c-0.024,0.097-0.12,0.146-0.285,0.146h-3.17c-0.19,0-0.35-0.084-0.5-0.252l-5.24-6.711
		l-1.46,1.4v5.203c0,0.24-0.12,0.359-0.35,0.359H0.36c-0.24,0-0.358-0.119-0.358-0.359V23.36c0-0.24,0.12-0.36,0.357-0.36h2.46
		c0.23,0,0.35,0.12,0.35,0.36v14.6l6.27-6.386c0.16-0.167,0.33-0.252,0.5-0.252h3.28c0.14,0,0.23,0.06,0.28,0.18
		c0.05,0.143,0.03,0.25-0.04,0.323l-6.63,6.458l6.915,8.646c0.097,0.096,0.12,0.217,0.074,0.36 M23.823,39.936
		c-2.33,0.239-3.925,0.549-4.78,0.933c-1.166,0.503-1.69,1.22-1.57,2.153c0.07,0.529,0.333,0.959,0.784,1.279
		c0.45,0.33,0.98,0.51,1.57,0.561c1.67,0.119,3-0.32,4-1.32v-3.59L23.823,39.936z M26.673,47.436h-2.46
		c-0.26,0-0.393-0.121-0.393-0.36v-0.502c-1.05,0.79-2.39,1.184-4.03,1.184c-1.5,0-2.796-0.466-3.89-1.399
		c-1.07-0.955-1.605-2.176-1.605-3.658c0-2.35,1.45-3.94,4.35-4.78c1.14-0.34,2.863-0.62,5.17-0.86c0.07-0.89-0.16-1.64-0.697-2.26
		c-0.534-0.63-1.313-0.94-2.335-0.94c-1.34,0-2.69,0.48-4.07,1.43c-0.22,0.12-0.37,0.09-0.47-0.07l-1.28-1.83
		c-0.12-0.15-0.082-0.31,0.108-0.5c1.833-1.27,3.74-1.9,5.71-1.9c1.52,0,2.813,0.36,3.883,1.07c1.57,1.05,2.354,2.74,2.354,5.06
		v9.939c0,0.24-0.12,0.36-0.354,0.36L26.673,47.436z M40.373,36.42c-0.595-1.53-1.974-2.297-4.136-2.297
		c-2.78,0-4.17,1.747-4.17,5.24c0,1.936,0.47,3.348,1.39,4.232c0.69,0.694,1.58,1.04,2.68,1.04c2.23,0,3.646-0.765,4.24-2.296v-5.92
		H40.373z M41.603,53.66c-1.296,1.35-3.13,2.027-5.51,2.027c-1.38,0-2.685-0.348-3.92-1.041c-0.263-0.168-0.57-0.39-0.928-0.664
		c-0.36-0.274-0.78-0.615-1.25-1.022c-0.17-0.144-0.18-0.321-0.04-0.538l1.67-1.686c0.07-0.072,0.166-0.108,0.285-0.108
		c0.092,0,0.175,0.036,0.25,0.108c1.33,1.34,2.623,2.01,3.883,2.01c2.877,0,4.316-1.508,4.316-4.521v-1.867
		c-1.113,0.934-2.6,1.4-4.453,1.4c-2.3,0-4.11-0.873-5.42-2.619c-1.14-1.531-1.71-3.457-1.71-5.777c0-2.199,0.55-4.065,1.64-5.597
		c1.288-1.84,3.107-2.762,5.46-2.762c1.783,0,3.28,0.466,4.493,1.4v-0.718c0-0.24,0.12-0.36,0.36-0.36h2.46
		c0.24,0,0.359,0.12,0.359,0.36v16.041c0,2.604-0.65,4.584-1.944,5.936H41.603z M57.143,36.42c-0.595-1.53-1.974-2.297-4.136-2.297
		c-2.788,0-4.18,1.747-4.18,5.24c0,1.936,0.466,3.348,1.39,4.232c0.69,0.694,1.584,1.04,2.678,1.04c2.233,0,3.649-0.765,4.244-2.296
		v-5.92H57.143z M58.373,53.66c-1.296,1.35-3.13,2.027-5.51,2.027c-1.379,0-2.687-0.348-3.92-1.041
		c-0.264-0.168-0.57-0.39-0.928-0.664c-0.358-0.274-0.774-0.615-1.25-1.022c-0.166-0.144-0.179-0.321-0.035-0.538l1.67-1.686
		c0.07-0.072,0.16-0.108,0.279-0.108c0.09,0,0.18,0.036,0.25,0.108c1.33,1.34,2.62,2.01,3.881,2.01c2.873,0,4.312-1.508,4.312-4.521
		v-1.867c-1.12,0.934-2.601,1.4-4.46,1.4c-2.301,0-4.11-0.873-5.42-2.619c-1.141-1.531-1.71-3.457-1.71-5.777
		c0-2.199,0.55-4.065,1.64-5.597c1.287-1.84,3.1-2.762,5.46-2.762c1.782,0,3.28,0.466,4.492,1.4v-0.718
		c0-0.24,0.116-0.36,0.354-0.36h2.459c0.238,0,0.357,0.12,0.357,0.36v16.041c0,2.604-0.648,4.584-1.943,5.936H58.373z
		 M65.788,47.434h-2.46c-0.24,0-0.355-0.119-0.355-0.357V23.36c0-0.24,0.119-0.36,0.356-0.36h2.46c0.236,0,0.355,0.12,0.355,0.36
		v23.716c0,0.24-0.119,0.357-0.354,0.357 M79.05,34.876c-0.81-0.74-1.786-1.112-2.927-1.112c-1.07,0-2.01,0.36-2.816,1.076
		c-0.81,0.718-1.32,1.65-1.529,2.801h8.6c-0.02-1.101-0.46-2.022-1.32-2.765H79.05z M83.721,40.15c0,0.24-0.121,0.36-0.361,0.36
		h-11.58c0.145,1.181,0.645,2.16,1.5,2.95c0.975,0.84,2.201,1.26,3.674,1.26c1.305,0,2.48-0.369,3.529-1.109
		c0.213-0.141,0.391-0.141,0.533,0l1.674,1.729c0.19,0.19,0.19,0.36,0,0.5c-1.711,1.29-3.697,1.94-5.955,1.94
		c-2.426,0-4.446-0.811-6.062-2.44c-1.57-1.6-2.354-3.649-2.354-6.14c0-2.34,0.771-4.33,2.311-5.95
		c1.43-1.482,3.28-2.223,5.561-2.223c2.16,0,3.979,0.776,5.449,2.33c1.521,1.604,2.223,3.613,2.104,6.031l-0.037,0.789L83.721,40.15
		z"/>
	<rect fill="none" width="83.742" height="72"/>
</g>
</svg>
